<?xml version="1.0" encoding="UTF-8"?>
<svg xmlns="http://www.w3.org/2000/svg" xmlns:xlink="http://www.w3.org/1999/xlink" version="1.1" width="512" height="512" x="0" y="0" viewBox="0 0 48 48" style="enable-background:new 0 0 512 512" xml:space="preserve" class="">
  <g>
    <path d="M34.39 5a11.52 11.52 0 0 0-8.2 3.4L24 10.59 21.81 8.4A11.6 11.6 0 0 0 2 16.61a17 17 0 0 0 6 13l15.35 13.15a1 1 0 0 0 1.3 0L40 29.57a17 17 0 0 0 6-13A11.63 11.63 0 0 0 34.39 5zm4.35 23.05L24 40.68 9.26 28.05A15.07 15.07 0 0 1 4 16.61a9.61 9.61 0 0 1 16.4-6.8l2.89 2.9a1 1 0 0 0 1.42 0l2.89-2.9a9.61 9.61 0 0 1 16.4 6.8 15.07 15.07 0 0 1-5.26 11.44z" fill="#4d4d4d" opacity="1" data-original="#000000" class=""/>
  </g>
</svg>
